<?xml version="1.0" encoding="utf-8"?>
<!-- Generator: Adobe Illustrator 19.2.1, SVG Export Plug-In . SVG Version: 6.00 Build 0)  -->
<svg version="1.1" id="Layer_1" xmlns="http://www.w3.org/2000/svg" xmlns:xlink="http://www.w3.org/1999/xlink" x="0px" y="0px"
	 viewBox="0 0 106.6 121.3" style="enable-background:new 0 0 106.6 121.3;" xml:space="preserve">
<style type="text/css">
	.st0{fill:#5D5D5D;stroke:#000000;stroke-miterlimit:10;}
	.st1{fill:#010202;stroke:#000000;stroke-miterlimit:10;}
	.st2{fill:none;stroke:#1A1A1A;stroke-miterlimit:10;}
	.st3{font-family:'ArialMT';}
	.st4{font-size:34px;}
	.st5{letter-spacing:1;}
	.st6{fill:none;stroke:#000000;stroke-width:1.5;stroke-miterlimit:10;}
	.st7{fill:none;stroke:#000000;stroke-width:1.5;stroke-linecap:round;stroke-miterlimit:10;}
	.st8{fill:none;stroke:#000000;stroke-linecap:round;stroke-miterlimit:22;}
	.st9{fill:none;stroke:#000000;stroke-width:1.5;stroke-linecap:round;stroke-linejoin:round;stroke-miterlimit:10;}
	.st10{fill:none;stroke:#000000;stroke-linecap:round;stroke-linejoin:round;stroke-miterlimit:10;}
	.st11{fill:none;stroke:#010202;stroke-linecap:round;stroke-linejoin:round;stroke-miterlimit:10;}
	.st12{fill:none;stroke:#000000;stroke-width:0.5;stroke-miterlimit:22;}
</style>
<g>
	<g>
		<g>
			<path class="st0" d="M40.9,45.9c13.1,0,23.8,10.7,23.8,23.8S54,93.5,40.9,93.5S17.1,82.8,17.1,69.7S27.8,45.9,40.9,45.9 M40.9,44
				c-14.2,0-25.7,11.5-25.7,25.7s11.5,25.7,25.7,25.7s25.7-11.5,25.7-25.7C66.6,55.5,55.1,44,40.9,44L40.9,44z"/>
		</g>
		<g>
			<g>
				<path class="st0" d="M81.3,77.8c4,0,7.3,3.3,7.3,7.3s-3.3,7.3-7.3,7.3S74,89.1,74,85.1C74.1,81.1,77.3,77.8,81.3,77.8
					 M81.3,75.9c-5.1,0-9.2,4.1-9.2,9.2s4.1,9.2,9.2,9.2s9.2-4.1,9.2-9.2S86.4,75.9,81.3,75.9L81.3,75.9z"/>
			</g>
		</g>
		<circle class="st1" cx="81.3" cy="85.1" r="2.6"/>
		<circle class="st1" cx="40.9" cy="69.7" r="3.9"/>
		<g>
			<path class="st0" d="M40.9,51.1c10.3,0,18.6,8.3,18.6,18.6s-8.3,18.6-18.6,18.6S22.3,80,22.3,69.7S30.6,51.1,40.9,51.1
				 M40.9,49.2c-11.3,0-20.5,9.2-20.5,20.5s9.2,20.5,20.5,20.5S61.4,81,61.4,69.7S52.2,49.2,40.9,49.2L40.9,49.2z"/>
		</g>
		<g>
			<path class="st0" d="M40.9,56.1c7.5,0,13.6,6.1,13.6,13.6s-6.1,13.6-13.6,13.6s-13.6-6.1-13.6-13.6
				C27.3,62.2,33.4,56.1,40.9,56.1 M40.9,54.2c-8.5,0-15.5,6.9-15.5,15.5c0,8.5,6.9,15.5,15.5,15.5c8.5,0,15.5-6.9,15.5-15.5
				S49.4,54.2,40.9,54.2L40.9,54.2z"/>
		</g>
	</g>
	<text transform="matrix(1 0 0 1 106.6273 77.0996)" class="st3 st4 st5" style="fill:#1A1A1A;">Mobility Aid</text>
	<text transform="matrix(1 0 0 1 106.6273 77.0996)" class="st2 st3 st4 st5">Mobility Aid</text>
	<line class="st6" x1="37" y1="23.9" x2="40.1" y2="44.2"/>
	<line class="st6" x1="34.9" y1="24.2" x2="37.3" y2="40.6"/>
	<path class="st6" d="M37.1,24c-0.2-1.1-0.7-1.9-1.3-1.8"/>
	<line class="st7" x1="35.9" y1="22.2" x2="28.8" y2="24.6"/>
	<line class="st8" x1="39.5" y1="40.8" x2="78.9" y2="40.8"/>
	<line class="st9" x1="83.6" y1="45.2" x2="83.6" y2="52"/>
	<line class="st9" x1="63.7" y1="58" x2="82.2" y2="58"/>
	<line class="st9" x1="86.5" y1="61.4" x2="86.5" y2="71"/>
	<line class="st9" x1="74.8" y1="71.1" x2="86.5" y2="71"/>
	<line class="st10" x1="81.3" y1="71.6" x2="81.3" y2="76.3"/>
	<path class="st10" d="M78.9,40.8c2.5-0.1,4.6,1.8,4.7,4.4"/>
	<path class="st10" d="M81.9,58c2.5-0.1,4.6,1.3,4.7,3.2"/>
	<line class="st11" x1="95.6" y1="85.1" x2="90.5" y2="85.1"/>
	<line class="st10" x1="51.7" y1="69.7" x2="46.6" y2="69.7"/>
	<line class="st10" x1="34.9" y1="69.8" x2="29.9" y2="69.8"/>
	<line class="st10" x1="40.7" y1="59.4" x2="40.7" y2="63.2"/>
	<line class="st10" x1="40.8" y1="75.8" x2="40.8" y2="79.7"/>
	<path class="st10" d="M40.9,59.3c5.7-0.2,10.6,4.4,10.8,10.4"/>
	<path class="st10" d="M40.7,79.7C35,79.9,30.1,75.6,29.9,70"/>
	<line class="st12" x1="33.6" y1="62.6" x2="36.9" y2="65.8"/>
	<line class="st12" x1="44.3" y1="73.1" x2="47.4" y2="76.1"/>
</g>
</svg>
