<svg id="Layer_1" data-name="Layer 1" xmlns="http://www.w3.org/2000/svg" viewBox="0 0 288.05 74.46"><defs><style>.cls-1{fill:#5d5d5d;}.cls-1,.cls-10,.cls-12,.cls-2,.cls-6,.cls-7,.cls-8,.cls-9{stroke:#000;}.cls-1,.cls-2,.cls-5,.cls-6,.cls-7{stroke-miterlimit:10;}.cls-2{fill:#010202;}.cls-3,.cls-5{isolation:isolate;font-size:34px;font-family:Arial;}.cls-3{fill:#1a1a1a;}.cls-4{letter-spacing:1px;}.cls-10,.cls-11,.cls-12,.cls-5,.cls-6,.cls-7,.cls-8,.cls-9{fill:none;}.cls-5{stroke:#1a1a1a;}.cls-6,.cls-7,.cls-9{stroke-width:1.5px;}.cls-10,.cls-11,.cls-7,.cls-8,.cls-9{stroke-linecap:round;}.cls-12,.cls-8{stroke-miterlimit:22;}.cls-10,.cls-11,.cls-9{stroke-linejoin:round;}.cls-11{stroke:#010202;}.cls-12{stroke-width:0.5px;}</style></defs><title>mobility_aids_favicon</title><path class="cls-1" d="M42.59,40.25A23.8,23.8,0,1,1,18.79,64a23.86,23.86,0,0,1,23.8-23.8m0-1.9A25.7,25.7,0,1,0,68.29,64a25.69,25.69,0,0,0-25.7-25.7h0Z" transform="translate(-16.39 -15.79)"/><path class="cls-1" d="M83,72.15a7.3,7.3,0,1,1-7.3,7.3,7.34,7.34,0,0,1,7.3-7.3m0-1.9a9.2,9.2,0,1,0,9.2,9.2,9.18,9.18,0,0,0-9.2-9.2h0Z" transform="translate(-16.39 -15.79)"/><circle class="cls-2" cx="66.6" cy="63.66" r="2.6"/><circle class="cls-2" cx="26.2" cy="48.26" r="3.9"/><path class="cls-1" d="M42.59,45.45A18.6,18.6,0,1,1,24,64a18.56,18.56,0,0,1,18.6-18.6m0-1.9A20.5,20.5,0,1,0,63.09,64a20.53,20.53,0,0,0-20.5-20.5h0Z" transform="translate(-16.39 -15.79)"/><path class="cls-1" d="M42.59,50.45A13.6,13.6,0,1,1,29,64a13.61,13.61,0,0,1,13.6-13.6m0-1.9A15.5,15.5,0,1,0,58.09,64a15.51,15.51,0,0,0-15.5-15.5h0Z" transform="translate(-16.39 -15.79)"/><text class="cls-3" transform="translate(91.93 55.66)"><tspan class="cls-4">Mobility</tspan><tspan x="131.02" y="0"> </tspan><tspan class="cls-4" x="140.57" y="0">Aid</tspan></text><text class="cls-5" transform="translate(91.93 55.66)"><tspan class="cls-4">Mobility</tspan><tspan x="131.02" y="0"> </tspan><tspan class="cls-4" x="140.57" y="0">Aid</tspan></text><line class="cls-6" x1="22.3" y1="2.46" x2="25.4" y2="22.76"/><line class="cls-6" x1="20.2" y1="2.76" x2="22.6" y2="19.16"/><path class="cls-6" d="M38.79,18.35c-0.2-1.1-.7-1.9-1.3-1.8" transform="translate(-16.39 -15.79)"/><line class="cls-7" x1="21.2" y1="0.76" x2="14.1" y2="3.16"/><line class="cls-8" x1="24.8" y1="19.36" x2="64.2" y2="19.36"/><line class="cls-9" x1="68.9" y1="23.76" x2="68.9" y2="30.56"/><line class="cls-9" x1="49" y1="36.56" x2="67.5" y2="36.56"/><line class="cls-9" x1="71.8" y1="39.96" x2="71.8" y2="49.56"/><line class="cls-9" x1="60.1" y1="49.66" x2="71.8" y2="49.56"/><line class="cls-10" x1="66.6" y1="50.16" x2="66.6" y2="54.86"/><path class="cls-10" d="M80.59,35.15a4.5,4.5,0,0,1,4.7,4.4" transform="translate(-16.39 -15.79)"/><path class="cls-10" d="M83.59,52.35c2.5-.1,4.6,1.3,4.7,3.2" transform="translate(-16.39 -15.79)"/><line class="cls-11" x1="80.9" y1="63.66" x2="75.8" y2="63.66"/><line class="cls-10" x1="37" y1="48.26" x2="31.9" y2="48.26"/><line class="cls-10" x1="20.2" y1="48.36" x2="15.2" y2="48.36"/><line class="cls-10" x1="26" y1="37.96" x2="26" y2="41.76"/><line class="cls-10" x1="26.1" y1="54.36" x2="26.1" y2="58.26"/><path class="cls-10" d="M42.59,53.65A10.6,10.6,0,0,1,53.39,64" transform="translate(-16.39 -15.79)"/><path class="cls-10" d="M42.39,74a10.29,10.29,0,0,1-10.8-9.7" transform="translate(-16.39 -15.79)"/><line class="cls-12" x1="18.9" y1="41.16" x2="22.2" y2="44.36"/><line class="cls-12" x1="29.6" y1="51.66" x2="32.7" y2="54.66"/></svg>