<?xml version="1.0" encoding="utf-8"?>
<!-- Generator: Adobe Illustrator 19.2.1, SVG Export Plug-In . SVG Version: 6.00 Build 0)  -->
<svg version="1.1" id="Layer_1" xmlns="http://www.w3.org/2000/svg" xmlns:xlink="http://www.w3.org/1999/xlink" x="0px" y="0px"
	 viewBox="0 0 85 85" style="enable-background:new 0 0 85 85;" xml:space="preserve">
<style type="text/css">
	.st0{fill:#5D5D5D;stroke:#000000;stroke-miterlimit:10;}
	.st1{fill:#010202;stroke:#000000;stroke-miterlimit:10;}
	.st2{fill:none;stroke:#000000;stroke-width:1.5;stroke-miterlimit:10;}
	.st3{fill:none;stroke:#000000;stroke-width:1.5;stroke-linecap:round;stroke-miterlimit:10;}
	.st4{fill:none;stroke:#000000;stroke-linecap:round;stroke-miterlimit:22;}
	.st5{fill:none;stroke:#000000;stroke-width:1.5;stroke-linecap:round;stroke-linejoin:round;}
	.st6{fill:none;stroke:#000000;stroke-linecap:round;stroke-linejoin:round;}
	.st7{fill:none;stroke:#010202;stroke-linecap:round;stroke-linejoin:round;}
	.st8{fill:none;stroke:#000000;stroke-width:0.5;stroke-miterlimit:22;}
</style>
<title>mobility_aids_favicon</title>
<path class="st0" d="M26.2,29.7C39.3,29.7,50,40.4,50,53.5S39.3,77.3,26.2,77.3S2.4,66.7,2.4,53.5c0,0,0,0,0,0
	C2.4,40.3,13.1,29.7,26.2,29.7 M26.2,27.8C12,27.8,0.5,39.3,0.5,53.5S12,79.2,26.2,79.2s25.7-11.5,25.7-25.7l0,0
	C51.9,39.3,40.4,27.8,26.2,27.8C26.2,27.8,26.2,27.8,26.2,27.8L26.2,27.8z"/>
<path class="st0" d="M66.6,61.6c4,0,7.3,3.3,7.3,7.3s-3.3,7.3-7.3,7.3s-7.3-3.3-7.3-7.3C59.3,64.9,62.6,61.7,66.6,61.6 M66.6,59.7
	c-5.1,0-9.2,4.1-9.2,9.2s4.1,9.2,9.2,9.2c5.1,0,9.2-4.1,9.2-9.2v0C75.8,63.9,71.7,59.7,66.6,59.7C66.6,59.7,66.6,59.7,66.6,59.7
	L66.6,59.7z"/>
<circle class="st1" cx="66.6" cy="68.9" r="2.6"/>
<circle class="st1" cx="26.2" cy="53.5" r="3.9"/>
<path class="st0" d="M26.2,34.9c10.3,0,18.6,8.3,18.6,18.6s-8.3,18.6-18.6,18.6S7.6,63.8,7.6,53.5c0,0,0,0,0-0.1
	C7.6,43.2,15.9,34.9,26.2,34.9C26.2,34.9,26.2,34.9,26.2,34.9 M26.2,33C14.9,33,5.7,42.1,5.7,53.5S14.9,74,26.2,74
	c11.3,0,20.5-9.2,20.5-20.5c0,0,0,0,0,0C46.7,42.2,37.5,33,26.2,33L26.2,33L26.2,33z"/>
<path class="st0" d="M26.2,39.9c7.5,0,13.6,6.1,13.6,13.6c0,7.5-6.1,13.6-13.6,13.6s-13.6-6.1-13.6-13.6c0,0,0,0,0-0.1
	C12.6,46,18.7,39.9,26.2,39.9 M26.2,38c-8.6,0-15.5,6.9-15.5,15.5S17.6,69,26.2,69s15.5-6.9,15.5-15.5c0,0,0,0,0,0
	C41.7,44.9,34.8,38,26.2,38L26.2,38L26.2,38z"/>
<text transform="matrix(1 0 0 1 91.93 60.93)" style="fill:#1A1A1A; font-family:'ArialMT'; font-size:34px;">Mobility</text>
<text transform="matrix(1 0 0 1 222.95 60.93)" style="fill:#1A1A1A; font-family:'ArialMT'; font-size:34px;"> </text>
<text transform="matrix(1 0 0 1 232.5 60.93)" style="fill:#1A1A1A; font-family:'ArialMT'; font-size:34px;">Aid</text>
<text transform="matrix(1 0 0 1 91.93 60.93)" style="fill:none;stroke:#1A1A1A;stroke-miterlimit:10; font-family:'ArialMT'; font-size:34px;">Mobility</text>
<text transform="matrix(1 0 0 1 222.95 60.93)" style="fill:none;stroke:#1A1A1A;stroke-miterlimit:10; font-family:'ArialMT'; font-size:34px;"> </text>
<text transform="matrix(1 0 0 1 232.5 60.93)" style="fill:none;stroke:#1A1A1A;stroke-miterlimit:10; font-family:'ArialMT'; font-size:34px;">Aid</text>
<line class="st2" x1="22.3" y1="7.7" x2="25.4" y2="28"/>
<line class="st2" x1="20.2" y1="8" x2="22.6" y2="24.4"/>
<path class="st2" d="M22.4,7.8c-0.2-1.1-0.7-1.9-1.3-1.8"/>
<line class="st3" x1="21.2" y1="6" x2="14.1" y2="8.4"/>
<line class="st4" x1="24.8" y1="24.6" x2="64.2" y2="24.6"/>
<line class="st5" x1="68.9" y1="29" x2="68.9" y2="35.8"/>
<line class="st5" x1="49" y1="41.8" x2="67.5" y2="41.8"/>
<line class="st5" x1="71.8" y1="45.2" x2="71.8" y2="54.8"/>
<line class="st5" x1="60.1" y1="54.9" x2="71.8" y2="54.8"/>
<line class="st6" x1="66.6" y1="55.4" x2="66.6" y2="60.1"/>
<path class="st6" d="M64.2,24.6c2.5-0.1,4.6,1.8,4.7,4.3c0,0,0,0.1,0,0.1"/>
<path class="st6" d="M67.2,41.8c2.5-0.1,4.6,1.3,4.7,3.2"/>
<line class="st7" x1="80.9" y1="68.9" x2="75.8" y2="68.9"/>
<line class="st6" x1="37" y1="53.5" x2="31.9" y2="53.5"/>
<line class="st6" x1="20.2" y1="53.6" x2="15.2" y2="53.6"/>
<line class="st6" x1="26" y1="43.2" x2="26" y2="47"/>
<line class="st6" x1="26.1" y1="59.6" x2="26.1" y2="63.5"/>
<path class="st6" d="M26.2,43.1C32,43,36.9,47.6,37,53.5"/>
<path class="st6" d="M26,63.5c-5.7,0.3-10.5-4-10.8-9.7"/>
<line class="st8" x1="18.9" y1="46.4" x2="22.2" y2="49.6"/>
<line class="st8" x1="29.6" y1="56.9" x2="32.7" y2="59.9"/>
</svg>
