<svg aria-hidden="true" style="position: absolute; width: 0; height: 0; overflow: hidden;" version="1.1" xmlns="http://www.w3.org/2000/svg" xmlns:xlink="http://www.w3.org/1999/xlink">
<defs>
<symbol id="icon-Mobility-Aid-Logo---alt" viewBox="0 0 94 32">
<title>Mobility-Aid-Logo---alt</title>
<path d="M10.79 12.109c3.456 0 6.279 2.823 6.279 6.279s-2.823 6.279-6.279 6.279c-3.456 0-6.279-2.823-6.279-6.279s2.823-6.279 6.279-6.279zM10.79 11.608c-3.746 0-6.78 3.034-6.78 6.78s3.034 6.78 6.78 6.78c3.746 0 6.78-3.034 6.78-6.78s-3.034-6.78-6.78-6.78v0z"></path>
<path d="M21.448 20.524c1.055 0 1.926 0.871 1.926 1.926s-0.871 1.926-1.926 1.926c-1.055 0-1.926-0.871-1.926-1.926 0.026-1.055 0.871-1.926 1.926-1.926zM21.448 20.023c-1.345 0-2.427 1.082-2.427 2.427s1.082 2.427 2.427 2.427c1.345 0 2.427-1.082 2.427-2.427s-1.082-2.427-2.427-2.427v0z"></path>
<path d="M22.134 22.45c0 0.379-0.307 0.686-0.686 0.686s-0.686-0.307-0.686-0.686c0-0.379 0.307-0.686 0.686-0.686s0.686 0.307 0.686 0.686z"></path>
<path d="M11.819 18.387c0 0.568-0.461 1.029-1.029 1.029s-1.029-0.461-1.029-1.029c0-0.568 0.461-1.029 1.029-1.029s1.029 0.461 1.029 1.029z"></path>
<path d="M10.79 13.481c2.717 0 4.907 2.19 4.907 4.907s-2.19 4.907-4.907 4.907c-2.717 0-4.907-2.19-4.907-4.907s2.19-4.907 4.907-4.907zM10.79 12.979c-2.981 0-5.408 2.427-5.408 5.408s2.427 5.408 5.408 5.408c2.981 0 5.408-2.427 5.408-5.408s-2.427-5.408-5.408-5.408v0z"></path>
<path d="M10.79 14.8c1.979 0 3.588 1.609 3.588 3.588s-1.609 3.588-3.588 3.588c-1.979 0-3.588-1.609-3.588-3.588s1.609-3.588 3.588-3.588zM10.79 14.298c-2.242 0-4.089 1.82-4.089 4.089 0 2.242 1.82 4.089 4.089 4.089 2.242 0 4.089-1.82 4.089-4.089s-1.847-4.089-4.089-4.089v0z"></path>
</symbol>
</defs>
</svg>
